<?xml version="1.0" encoding="utf-8"?>
<!-- Generator: Adobe Illustrator 16.0.0, SVG Export Plug-In . SVG Version: 6.00 Build 0)  -->
<!DOCTYPE svg PUBLIC "-//W3C//DTD SVG 1.1//EN" "http://www.w3.org/Graphics/SVG/1.1/DTD/svg11.dtd">
<svg version="1.1" id="Layer_1" xmlns="http://www.w3.org/2000/svg" xmlns:xlink="http://www.w3.org/1999/xlink" x="0px" y="0px"
	 width="203.5px" height="106.5px" viewBox="0 0 203.5 106.5" enable-background="new 0 0 203.5 106.5" xml:space="preserve">
<g>
	<g>
		<path fill="#E0BDA4" d="M14.826,39.606H11.13c-1.426,0-2.199,0.286-2.845,0.706c-1.1-0.616-2.162-0.706-3-0.706H4.402
			c-2.345,0-2.598,1.698-2.598,2.427c0,1.16,0.45,2.539,2.598,2.539h1.317v34.202H4.348c-2.347,0-2.6,1.698-2.6,2.427
			c0,1.159,0.45,2.539,2.6,2.539l1.282-0.001c1.253-0.097,2.019-0.279,2.725-0.69c0.677,0.418,1.441,0.597,2.775,0.691h2.151
			c2.345,0,2.598-1.657,2.598-2.37c0-1.674-0.922-2.596-2.598-2.596h-2.474V63.033h4.018c1.115,0,6.679-0.433,6.679-8.956v-5.515
			C21.504,40.038,15.94,39.606,14.826,39.606z M16.418,54.357c0,3.528-1.832,3.707-2.199,3.707h-3.411V44.572h3.3
			c0.542,0,2.31,0.268,2.31,3.708V54.357z M38.813,39.606h-7.223c-1.242,0-2.05,0.179-2.742,0.649
			c-0.754-0.465-1.579-0.649-2.775-0.649h-1.102c-1.535,0-2.444,0.794-2.581,2.316l-0.019,0.336h0.011
			c0.113,1.493,1.028,2.313,2.588,2.313h1.315v34.202h-1.315c-1.535,0-2.444,0.793-2.581,2.315l-0.019,0.337h0.011
			c0.113,1.493,1.028,2.313,2.588,2.313l1.118-0.001c1.262-0.097,2.054-0.283,2.727-0.679c0.732,0.443,1.581,0.592,2.773,0.68h7.223
			c1.677,0,2.6-0.941,2.6-2.65V69.383c0-1.662-0.875-2.602-2.489-2.648l-0.111-0.002v0.001c-1.605,0.038-2.489,0.979-2.489,2.649
			v9.392h-4.948V64.327h4.404c1.629,0,2.549-0.894,2.598-2.541l0.002-0.113h-0.002c-0.039-1.638-0.959-2.539-2.598-2.539h-4.404
			V44.572h4.948v9.335c0,1.664,0.875,2.604,2.489,2.65l0.104,0.003l0.007-0.001c1.605-0.039,2.489-0.979,2.489-2.652V42.259
			C41.413,40.549,40.491,39.606,38.813,39.606z M59.931,80.998c0.812-1.481,1.278-3.684,1.278-6.044
			c0-5.768-3.297-10.75-6.935-15.717c-0.625-0.989-1.245-1.904-1.832-2.771c-2.064-3.053-3.695-5.464-3.695-8.354
			c0-2.677,1.325-3.876,2.638-3.876c2.802,0,4.516,6.262,4.516,9.671c0,1.956,1.143,2.653,2.212,2.653
			c1.389,0,2.323-1.065,2.323-2.653V42.259c0-1.913-1.142-2.596-2.212-2.596c-1.009,0-2.087,0.638-2.155,2.414
			c-1.295-1.947-3.115-3.033-5.234-3.033c-4.227,0-7.177,3.729-7.177,9.068c0,4.771,2.354,8.814,7.298,15.542l0.376,0.52
			c2.354,3.244,4.788,6.598,4.788,10.557c0,2.021-0.705,4.382-2.695,4.382c-2.461,0-4.79-6.506-4.79-8.94
			c0-1.578-0.956-2.596-2.433-2.596c-1.502,0-2.434,1.017-2.434,2.652V81.09c0,2.461,1.736,2.65,2.268,2.65
			c1.124,0,2.323-0.696,2.323-2.65v-0.126c1.234,1.949,3.14,3.34,5.729,3.34C56.644,84.304,58.772,83.1,59.931,80.998z
			 M86.465,53.852V42.259c0-1.71-0.923-2.652-2.6-2.652h-6.507c-1.371,0-2.166,0.32-2.815,0.767c-0.636-0.43-1.463-0.767-2.81-0.767
			h-6.507c-1.675,0-2.598,0.942-2.598,2.652v11.593c0,2.192,1.352,2.652,2.487,2.652c1.677,0,2.6-0.941,2.6-2.652v-9.279h4.343
			v34.202h-1.317c-1.675,0-2.598,0.922-2.598,2.596c0,0.885,0.338,2.37,2.598,2.37h0.277c0.564,0,1.149,0,1.769-0.063
			c0.714-0.091,1.297-0.28,1.851-0.616c0.679,0.444,1.452,0.68,2.776,0.68h0.938c1.917,0,2.6-1.224,2.6-2.37
			c0-1.649-0.949-2.596-2.6-2.596h-1.315V44.572h4.341v9.279c0,1.711,0.924,2.652,2.6,2.652
			C85.557,56.504,86.465,55.538,86.465,53.852z M97.21,39.044c-4.765,0-8.5,3.735-8.5,8.506v28.249c0,4.77,3.734,8.505,8.5,8.505
			c4.797,0,8.556-3.735,8.556-8.505V47.493C105.766,42.755,102.007,39.044,97.21,39.044z M100.732,75.799
			c0,2.051-1.482,3.538-3.522,3.538c-2.009,0-3.467-1.487-3.467-3.538V47.493c0-2.019,1.458-3.483,3.467-3.483
			c2.041,0,3.522,1.49,3.522,3.54V75.799z M129.305,84.304c4.797,0,8.28-3.529,8.28-8.392v-5.684c0-1.629-0.888-2.57-2.498-2.651
			l-0.075-0.005l-0.076,0.009c-1.013,0.115-2.22,0.669-2.22,2.647v5.684c0,1.92-1.497,3.425-3.411,3.425
			c-1.85,0-3.247-1.473-3.247-3.425V48.394c0-2.908,1.13-4.384,3.358-4.384c0.814,0,3.3,0,3.3,4.384v5.514
			c0,2.189,1.349,2.652,2.537,2.652h0.006c0.868-0.051,2.326-0.461,2.326-2.652V41.696c0-1.577-0.868-2.597-2.214-2.597
			c-1.047,0-1.795,0.592-2.107,1.596c-1.106-1.051-2.649-1.651-4.4-1.651c-4.794,0-7.893,3.294-7.893,8.393v28.476
			C120.971,80.774,124.477,84.304,129.305,84.304z M178.109,39.606h-7.28c-1.307,0-2.098,0.247-2.735,0.67
			c-0.707-0.437-1.484-0.67-2.779-0.67h-1.048c-1.535,0-2.444,0.794-2.581,2.316l-0.019,0.336h0.013
			c0.111,1.493,1.025,2.313,2.587,2.313h1.317v34.202h-1.317c-1.321,0-2.175,0.591-2.476,1.724
			c-0.288-1.115-1.147-1.724-2.487-1.724h-0.94l-3.309-24.829l-1.6-11.823c-0.232-1.665-1.174-2.511-2.797-2.516h-1.24
			c-1.623,0.006-2.564,0.851-2.797,2.521l-4.907,36.647h-0.938c-1.535,0-2.445,0.793-2.582,2.315l-0.018,0.337h0.012
			c0.111,1.493,1.027,2.313,2.588,2.313l0.451-0.001c1.271-0.094,2.022-0.271,2.73-0.689c0.68,0.418,1.441,0.596,2.773,0.69h0.441
			c1.534,0,2.443-0.792,2.58-2.313l0.02-0.337h-0.014c-0.11-1.495-1.025-2.315-2.586-2.315h-0.35l1.502-11.016h3.43l1.502,11.016
			h-0.349c-1.535,0-2.444,0.793-2.581,2.315l-0.019,0.337h0.011c0.113,1.493,1.027,2.313,2.589,2.313l0.508-0.001
			c1.28-0.095,2.03-0.271,2.706-0.689c0.711,0.418,1.475,0.597,2.797,0.69h0.386c1.321,0,2.175-0.59,2.476-1.724
			c0.288,1.115,1.148,1.724,2.487,1.724l1.118-0.001c1.249-0.096,2.013-0.277,2.716-0.686c0.733,0.447,1.585,0.599,2.784,0.687
			h1.104c1.535,0,2.444-0.792,2.58-2.313l0.02-0.337h-0.014c-0.11-1.495-1.025-2.315-2.586-2.315h-1.318V65.002h4.406
			c1.629,0,2.55-0.893,2.596-2.54l0.002-0.112c-0.039-1.638-0.959-2.54-2.598-2.54h-4.406V44.572h4.951v9.335
			c0,1.664,0.874,2.604,2.488,2.65l0.104,0.003l0.006-0.001c1.604-0.039,2.488-0.979,2.488-2.652V42.259
			C180.707,40.549,179.785,39.606,178.109,39.606z M148.787,63.411l1.089-9.236l0.164-1.648l1.251,10.885H148.787z M199.12,56.558
			l0.103,0.003l0.006-0.001c1.605-0.039,2.488-0.979,2.488-2.652V42.259c0-1.71-0.922-2.652-2.597-2.652h-7.226
			c-1.241,0-2.048,0.179-2.74,0.649c-0.754-0.465-1.58-0.649-2.773-0.649h-1.104c-1.535,0-2.445,0.794-2.582,2.316l-0.018,0.336
			h0.013c0.11,1.493,1.026,2.313,2.587,2.313h1.317v34.202h-1.317c-1.535,0-2.445,0.793-2.582,2.315l-0.018,0.337h0.013
			c0.11,1.493,1.026,2.313,2.587,2.313l1.117-0.001c1.264-0.097,2.056-0.283,2.729-0.679c0.733,0.443,1.58,0.592,2.771,0.68h7.226
			c1.675,0,2.597-0.941,2.597-2.65V69.383c0-1.662-0.874-2.602-2.488-2.648l-0.108-0.002v0.001
			c-1.605,0.038-2.489,0.979-2.489,2.649v9.392h-4.949V64.327h4.404c1.63,0,2.551-0.894,2.597-2.541l0.001-0.113
			c-0.038-1.638-0.959-2.539-2.598-2.539h-4.404V44.572h4.949v9.335C196.631,55.571,197.506,56.511,199.12,56.558z M46.583,104.17
			h2.347V93.503h-2.347V104.17z M50.835,95.619h2.896v8.551h2.347v-8.551h2.895v-2.116h-8.138V95.619z M63.271,93.503l-4.114,10.667
			h2.468l0.793-2.176h3.551l0.792,2.176h2.469l-4.115-10.667H63.271z M63.149,100.001l0.396-1.257l0.61-2.084h0.062l0.624,2.115
			l0.396,1.226H63.149z M73.421,93.503h-2.347v10.667h7.499v-2.115h-5.151V93.503z M80.798,104.17h2.346V93.503h-2.346V104.17z
			 M89.011,93.503l-4.115,10.667h2.469l0.793-2.176h3.551l0.792,2.176h2.469l-4.115-10.667H89.011z M88.889,100.001l0.396-1.257
			l0.61-2.084h0.061l0.625,2.115l0.396,1.226H88.889z M103.2,99.955l-0.03,0.016l-2.042-3.203l-2.225-3.265h-2.088v10.667h2.347
			v-6.452l0.031-0.015l1.569,2.544l2.698,3.923h2.088V93.503H103.2V99.955z M115.094,94.606c-0.36-0.367-0.797-0.656-1.309-0.865
			c-0.514-0.21-1.091-0.315-1.731-0.315c-0.69,0-1.292,0.114-1.806,0.338c-0.514,0.225-0.939,0.528-1.281,0.912
			c-0.34,0.383-0.594,0.824-0.762,1.325c-0.167,0.501-0.25,1.027-0.25,1.579v2.514c0,0.551,0.083,1.08,0.25,1.585
			c0.168,0.506,0.422,0.952,0.762,1.333c0.342,0.385,0.768,0.688,1.281,0.913c0.514,0.225,1.115,0.337,1.806,0.337
			c0.631,0,1.201-0.097,1.715-0.292c0.514-0.193,0.95-0.472,1.312-0.834c0.36-0.362,0.639-0.803,0.838-1.318
			c0.197-0.516,0.297-1.091,0.297-1.724V97.58c0-0.593-0.097-1.145-0.289-1.656C115.732,95.414,115.455,94.975,115.094,94.606z
			 M113.822,100.263c0,0.51-0.156,0.937-0.467,1.278c-0.311,0.344-0.752,0.514-1.325,0.514c-0.295,0-0.55-0.051-0.765-0.153
			s-0.393-0.233-0.535-0.398c-0.144-0.162-0.25-0.353-0.322-0.566c-0.07-0.216-0.106-0.439-0.106-0.674v-2.896
			c0-0.216,0.036-0.428,0.106-0.637c0.072-0.209,0.179-0.396,0.322-0.561c0.143-0.162,0.32-0.293,0.535-0.391
			c0.215-0.096,0.47-0.145,0.765-0.145c0.573,0,1.015,0.171,1.325,0.514c0.311,0.342,0.467,0.748,0.467,1.219V100.263z
			 M128.057,97.871l-0.747,2.667h-0.077l-0.791-2.713l-1.357-4.322h-2.469l3.674,10.667h1.904l3.658-10.667h-2.454L128.057,97.871z
			 M133.711,104.17h7.498v-2.115h-5.151v-2.237h4.389v-2.038h-4.389v-2.16h5.151v-2.116h-7.498V104.17z M151.016,98.445
			c0.33-0.516,0.494-1.096,0.494-1.739c0-0.51-0.091-0.966-0.273-1.364c-0.184-0.397-0.432-0.732-0.746-1.003
			c-0.316-0.271-0.68-0.479-1.091-0.62c-0.411-0.145-0.851-0.216-1.318-0.216h-4.693v10.667h2.347v-4.122h1.523l1.678,4.122h2.65
			l-2.026-4.536C150.199,99.358,150.685,98.962,151.016,98.445z M148.691,97.626c-0.254,0.204-0.594,0.307-1.021,0.307h-1.936v-2.33
			h2.012c0.396,0,0.717,0.087,0.96,0.262c0.243,0.173,0.366,0.459,0.366,0.857S148.945,97.422,148.691,97.626z M160.783,94.606
			c-0.361-0.367-0.797-0.656-1.311-0.865c-0.514-0.21-1.09-0.315-1.73-0.315c-0.689,0-1.293,0.114-1.805,0.338
			c-0.514,0.225-0.939,0.528-1.281,0.912c-0.34,0.383-0.594,0.824-0.762,1.325s-0.252,1.027-0.252,1.579v2.514
			c0,0.551,0.084,1.08,0.252,1.585c0.168,0.506,0.422,0.952,0.762,1.333c0.342,0.385,0.768,0.688,1.281,0.913
			c0.512,0.225,1.115,0.337,1.805,0.337c0.631,0,1.202-0.097,1.715-0.292c0.514-0.193,0.95-0.472,1.312-0.834
			c0.36-0.362,0.64-0.803,0.837-1.318c0.199-0.516,0.299-1.091,0.299-1.724V97.58c0-0.593-0.098-1.145-0.291-1.656
			C161.421,95.414,161.145,94.975,160.783,94.606z M159.512,100.263c0,0.51-0.156,0.937-0.469,1.278
			c-0.311,0.344-0.751,0.514-1.323,0.514c-0.296,0-0.552-0.051-0.766-0.153s-0.392-0.233-0.536-0.398
			c-0.143-0.162-0.248-0.353-0.32-0.566c-0.072-0.216-0.107-0.439-0.107-0.674v-2.896c0-0.216,0.035-0.428,0.107-0.637
			s0.178-0.396,0.32-0.561c0.145-0.162,0.322-0.293,0.536-0.391c0.214-0.096,0.47-0.145,0.766-0.145
			c0.572,0,1.013,0.171,1.323,0.514c0.313,0.342,0.469,0.748,0.469,1.219V100.263z M79.154,17.42
			c2.624,3.58,6.911,8.756,12.186,8.756c0.912,0,1.853-0.154,2.819-0.498c-1.053-6.276-6.633-7.987-11.822-10.093
			c4.126-2.718,6.634-7.069,7.274-13.304c-1.265-0.699-2.431-1.013-3.497-1.013c-5.529,0-8.36,8.443-8.325,15.233
			c-1.319,0.505-3.075,0.568-3.184,2.294c0.218,0.032,0.418,0.046,0.605,0.046C76.995,18.842,77.475,17.526,79.154,17.42z
			 M91.885,24.301c-0.469,0.081-0.934,0.119-1.394,0.119c-4.086,0-7.726-3.049-9.064-6.541c0.081-0.001,0.16-0.002,0.24-0.002
			C87.196,17.877,90.255,20.368,91.885,24.301z M86.313,3.621c0.188,0,0.379,0.013,0.571,0.037c0.354,4.528-2.333,9.846-6.82,11.009
			C78.905,9.706,82.102,3.621,86.313,3.621z M101.889,13.291c2.042-3.443,6.568-4.383,6.367-10.093
			c-0.664-0.133-1.277-0.195-1.852-0.195c-6.973,0-7.741,9.199-14.064,10.746c0.096-0.003,0.191-0.004,0.285-0.004
			c3.454,0,5.451,1.921,7.356,3.842c1.905,1.92,3.717,3.841,6.802,3.841c0.72,0,1.509-0.104,2.384-0.338
			C108.988,16.221,104.613,15.588,101.889,13.291z M106.438,4.575c-0.933,4.413-3.999,6.67-8.186,7.799
			C100.131,8.918,101.871,5.32,106.438,4.575z M105.672,19.432c-2.891,0-5.298-2.947-6.511-5.223
			c3.397,0.854,5.346,3.17,7.729,5.046C106.477,19.376,106.07,19.432,105.672,19.432z M117.805,13.291
			c3.646-1.558,7.172-5.557,5.91-10.551c-5.461,0.911-8.055,4.717-10.002,9.175c-0.765,1.065-4.074-0.44-3.639,1.834
			c0.268-0.02,0.526-0.03,0.775-0.03c7.784,0.001,6.139,9.517,13.775,9.665C126.174,17.951,120.314,16.146,117.805,13.291z
			 M115.531,12.374c0.24-4.193,3.755-5.08,5.912-7.34C122.456,8.662,118.974,11.714,115.531,12.374z M117.351,15.125
			c2.253,1.398,4.394,2.907,5.456,5.507C120.146,19.874,116.922,17.499,117.351,15.125z M62.853,24.967
			c0.638-0.371,1.274-0.742,2.28-0.742c0.252,0,0.529,0.023,0.834,0.076c-0.216,1.443,0.647,1.794,0.91,2.754
			c4.093,1.107,7.324,6.155,11.774,6.155c0.874,0,1.794-0.195,2.777-0.652c-1.92-6.016-7.16-8.68-12.732-11.009
			c1.932-3.796,4.324-9.279,2.728-15.139c-0.288-0.041-0.566-0.06-0.834-0.06c-5.931,0.001-7,9.479-5.988,16.116
			c-1.354,1.231-4.672,0.483-4.546,3.211c0.183,0.021,0.355,0.03,0.518,0.03C61.579,25.708,62.216,25.337,62.853,24.967z
			 M69.021,23.991c4.057,0,9.471,4.438,9.679,7.649c-4.606-1.623-8.154-4.313-11.37-7.34C67.85,24.088,68.42,23.991,69.021,23.991z
			 M69.15,7.786c2.959,3.314-0.268,11.007-2.728,13.304C64.01,16.581,67.009,10.646,69.15,7.786z M87.793,13.749
			c-0.241,0.927,0.457,1.386,1.141,1.386c0.562,0,1.116-0.311,1.134-0.926c-0.417-0.304-0.936-0.505-1.652-0.505
			C88.223,13.704,88.016,13.718,87.793,13.749z M144.808,24.333c0.395,0,0.791-0.011,1.188-0.032c-2.635-5.55-8.567-9.38-16.06-9.38
			c-0.987,0-2.001,0.066-3.038,0.204C130.357,20.369,137.236,24.333,144.808,24.333z M131.258,16.5
			c5.824,0,8.944,2.728,11.557,5.967c-5.31-0.608-10-1.839-11.824-5.965C131.08,16.501,131.169,16.5,131.258,16.5z M55.962,28.431
			c0.078,0.01,0.154,0.015,0.227,0.015c1.681,0,2.049-2.547,1.137-3.686c-0.157-0.024-0.301-0.035-0.435-0.035
			c-1.079,0-1.447,0.718-2.293,0.953C54.355,27.3,55.335,27.688,55.962,28.431z M149.818,29.359c0.334,0,0.549-0.119,0.766-0.237
			c0.215-0.119,0.43-0.237,0.764-0.237c0.034,0,0.069,0.001,0.106,0.004c0.144-1.064-0.075-1.762-0.456-2.294h-1.364
			c-0.621,0.587-0.621,2.167,0,2.753C149.699,29.355,149.762,29.359,149.818,29.359z M154.929,33.976
			c0.551,0,1.105-0.273,1.527-0.958c-0.024-1.812-0.935-2.729-2.728-2.753C151.645,31.501,153.271,33.976,154.929,33.976z
			 M106.76,29.47l0.018-0.024l-0.021,0.023L106.76,29.47z M99.189,20.557c-0.649,0-1.301,0.206-1.934,0.672
			c-4.449,3.276,1.789,11.404,5.949,11.404c0.486,0,0.943-0.11,1.353-0.354C107.967,30.257,103.646,20.557,99.189,20.557z
			 M103.719,31.487c-1.047,0-2.231-0.826-3.311-1.987c-2.795-2.055-4.408-4.898-3.396-6.446c-0.003,1.468,1.54,4.451,3.396,6.446
			c1.101,0.81,2.385,1.496,3.764,1.933C104.025,31.47,103.873,31.487,103.719,31.487z M114.171,18.393
			c-0.516,0-1.034,0.164-1.535,0.533c-3.531,2.601,1.42,9.052,4.722,9.052c0.385,0,0.748-0.088,1.072-0.281
			C121.137,26.091,117.709,18.393,114.171,18.393z M117.766,27.067c-0.832,0-1.772-0.655-2.629-1.577
			c-2.217-1.631-3.496-3.887-2.695-5.115c-0.001,1.164,1.223,3.531,2.695,5.115c0.873,0.643,1.893,1.188,2.987,1.534
			C118.008,27.054,117.887,27.067,117.766,27.067z"/>
	</g>
</g>
</svg>
