<?xml version="1.0" encoding="utf-8"?>
<!-- Generator: Adobe Illustrator 16.0.0, SVG Export Plug-In . SVG Version: 6.00 Build 0)  -->
<!DOCTYPE svg PUBLIC "-//W3C//DTD SVG 1.1//EN" "http://www.w3.org/Graphics/SVG/1.1/DTD/svg11.dtd">
<svg version="1.1" id="Layer_1" xmlns="http://www.w3.org/2000/svg" xmlns:xlink="http://www.w3.org/1999/xlink" x="0px" y="0px"
	 width="161.542px" height="83.063px" viewBox="0 0 161.542 83.063" enable-background="new 0 0 161.542 83.063"
	 xml:space="preserve">
<g>
	<g>
		<path fill="#325125" d="M11.77,31.073H8.833c-1.134,0-1.749,0.228-2.262,0.561c-0.874-0.49-1.719-0.561-2.385-0.561H3.483
			c-1.864,0-2.065,1.349-2.065,1.928c0,0.922,0.358,2.019,2.065,2.019H4.53v27.176H3.44c-1.865,0-2.066,1.351-2.066,1.93
			c0,0.922,0.358,2.018,2.066,2.018l1.02-0.001c0.996-0.077,1.604-0.222,2.167-0.549c0.538,0.333,1.146,0.475,2.206,0.55h1.71
			c1.864,0,2.065-1.315,2.065-1.883c0-1.33-0.733-2.063-2.065-2.063H8.576V49.687h3.194c0.886,0,5.31-0.343,5.31-7.116v-4.382
			C17.08,31.415,12.656,31.073,11.77,31.073z M13.036,42.793c0,2.804-1.457,2.944-1.749,2.944H8.576v-10.72H11.2
			c0.431,0,1.836,0.212,1.836,2.945V42.793z M30.841,31.073h-5.743c-0.987,0-1.629,0.142-2.179,0.516
			c-0.6-0.369-1.256-0.516-2.206-0.516h-0.875c-1.22,0-1.943,0.63-2.052,1.84l-0.015,0.268h0.009
			c0.089,1.188,0.817,1.839,2.058,1.839h1.045v27.176h-1.045c-1.22,0-1.943,0.631-2.052,1.841l-0.015,0.269h0.009
			c0.089,1.187,0.817,1.838,2.058,1.838l0.889-0.001c1.003-0.077,1.633-0.225,2.167-0.539c0.583,0.353,1.257,0.471,2.205,0.54h5.743
			c1.333,0,2.066-0.748,2.066-2.105v-9.303c0-1.32-0.695-2.066-1.979-2.104l-0.088-0.001v0.001c-1.276,0.03-1.979,0.777-1.979,2.104
			v7.462h-3.934v-11.48h3.501c1.295,0,2.027-0.71,2.065-2.02l0.001-0.091h-0.001c-0.031-1.301-0.763-2.018-2.065-2.018h-3.501
			V35.019h3.934v7.417c0,1.322,0.695,2.068,1.979,2.105l0.082,0.002h0.006c1.276-0.031,1.979-0.777,1.979-2.107V33.18
			C32.907,31.821,32.174,31.073,30.841,31.073z M47.629,63.961c0.646-1.177,1.017-2.926,1.017-4.802
			c0-4.583-2.621-8.542-5.514-12.489c-0.497-0.785-0.99-1.513-1.457-2.201c-1.641-2.426-2.938-4.342-2.938-6.638
			c0-2.127,1.053-3.08,2.098-3.08c2.228,0,3.59,4.975,3.59,7.685c0,1.556,0.908,2.107,1.759,2.107c1.104,0,1.847-0.848,1.847-2.107
			V33.18c0-1.521-0.908-2.063-1.759-2.063c-0.802,0-1.659,0.507-1.713,1.917c-1.03-1.548-2.476-2.41-4.161-2.41
			c-3.36,0-5.706,2.963-5.706,7.206c0,3.791,1.872,7.004,5.802,12.349l0.299,0.414c1.872,2.577,3.806,5.242,3.806,8.387
			c0,1.607-0.56,3.483-2.143,3.483c-1.957,0-3.807-5.171-3.807-7.104c0-1.254-0.76-2.063-1.935-2.063
			c-1.194,0-1.935,0.809-1.935,2.107v8.631c0,1.956,1.38,2.105,1.803,2.105c0.893,0,1.847-0.554,1.847-2.105v-0.102
			c0.981,1.55,2.496,2.654,4.554,2.654C45.015,66.588,46.708,65.631,47.629,63.961z M68.724,42.391V33.18
			c0-1.359-0.733-2.107-2.066-2.107h-5.173c-1.09,0-1.722,0.254-2.238,0.608c-0.506-0.341-1.163-0.608-2.234-0.608H51.84
			c-1.332,0-2.065,0.748-2.065,2.107v9.211c0,1.742,1.075,2.108,1.977,2.108c1.333,0,2.067-0.749,2.067-2.108v-7.372h3.453v27.176
			h-1.047c-1.332,0-2.065,0.733-2.065,2.063c0,0.703,0.269,1.883,2.065,1.883h0.22c0.449,0,0.914,0,1.407-0.051
			c0.567-0.072,1.031-0.223,1.471-0.489c0.54,0.354,1.154,0.54,2.208,0.54h0.745c1.524,0,2.066-0.973,2.066-1.883
			c0-1.311-0.754-2.063-2.066-2.063H61.23V35.019h3.451v7.372c0,1.359,0.735,2.108,2.066,2.108
			C68.001,44.499,68.724,43.731,68.724,42.391z M77.266,30.625c-3.788,0-6.757,2.968-6.757,6.758V59.83
			c0,3.79,2.969,6.758,6.757,6.758c3.814,0,6.801-2.968,6.801-6.758V37.338C84.066,33.574,81.08,30.625,77.266,30.625z
			 M80.066,59.83c0,1.63-1.178,2.812-2.8,2.812c-1.597,0-2.756-1.182-2.756-2.812V37.338c0-1.604,1.159-2.769,2.756-2.769
			c1.623,0,2.8,1.185,2.8,2.813V59.83z M102.781,66.588c3.813,0,6.582-2.804,6.582-6.667v-4.518c0-1.294-0.705-2.042-1.984-2.106
			l-0.061-0.004l-0.061,0.008c-0.805,0.092-1.766,0.531-1.766,2.104v4.517c0,1.525-1.189,2.721-2.712,2.721
			c-1.471,0-2.581-1.17-2.581-2.721V38.054c0-2.311,0.897-3.483,2.67-3.483c0.647,0,2.623,0,2.623,3.483v4.382
			c0,1.739,1.072,2.107,2.018,2.107h0.004c0.691-0.041,1.85-0.366,1.85-2.107v-9.703c0-1.253-0.689-2.063-1.76-2.063
			c-0.832,0-1.428,0.47-1.675,1.267c-0.88-0.835-2.106-1.312-3.499-1.312c-3.811,0-6.273,2.618-6.273,6.669v22.627
			C96.156,63.784,98.942,66.588,102.781,66.588z M141.58,31.073h-5.787c-1.039,0-1.668,0.196-2.176,0.532
			c-0.562-0.347-1.179-0.532-2.209-0.532h-0.832c-1.221,0-1.943,0.63-2.053,1.84l-0.016,0.268h0.012
			c0.088,1.188,0.814,1.839,2.057,1.839h1.047v27.176h-1.047c-1.051,0-1.729,0.471-1.969,1.37c-0.229-0.886-0.912-1.37-1.979-1.37
			h-0.746l-2.631-19.729l-1.271-9.394c-0.186-1.323-0.934-1.996-2.223-2h-0.986c-1.291,0.004-2.039,0.676-2.225,2.003l-3.9,29.118
			H111.9c-1.221,0-1.943,0.631-2.053,1.841l-0.016,0.269h0.012c0.088,1.187,0.814,1.838,2.057,1.838l0.359-0.001
			c1.01-0.074,1.607-0.216,2.17-0.548c0.54,0.332,1.146,0.474,2.205,0.549h0.35c1.221,0,1.943-0.63,2.053-1.838l0.016-0.269h-0.012
			c-0.088-1.188-0.814-1.841-2.057-1.841h-0.275l1.192-8.753h2.728l1.193,8.753h-0.277c-1.221,0-1.942,0.631-2.051,1.841
			l-0.016,0.269h0.009c0.089,1.187,0.817,1.838,2.058,1.838l0.404-0.001c1.018-0.075,1.613-0.216,2.15-0.548
			c0.564,0.332,1.172,0.474,2.225,0.549h0.307c1.05,0,1.729-0.469,1.969-1.369c0.229,0.887,0.912,1.369,1.979,1.369l0.889-0.001
			c0.992-0.076,1.6-0.22,2.158-0.545c0.584,0.356,1.26,0.476,2.213,0.546h0.879c1.22,0,1.943-0.63,2.051-1.838l0.016-0.269h-0.011
			c-0.088-1.188-0.815-1.841-2.056-1.841h-1.049V51.252h3.502c1.297,0,2.027-0.71,2.063-2.02l0.002-0.09
			c-0.03-1.302-0.762-2.019-2.065-2.019h-3.502V35.019h3.937v7.417c0,1.322,0.694,2.068,1.978,2.105l0.082,0.002h0.006
			c1.275-0.031,1.979-0.777,1.979-2.107V33.18C143.646,31.821,142.912,31.073,141.58,31.073z M118.27,49.987l0.864-7.339
			l0.132-1.311l0.993,8.648L118.27,49.987L118.27,49.987z M158.285,44.541l0.082,0.002h0.004c1.275-0.031,1.979-0.777,1.979-2.107
			V33.18c0-1.359-0.734-2.107-2.064-2.107h-5.744c-0.987,0-1.629,0.142-2.18,0.516c-0.6-0.369-1.256-0.516-2.205-0.516h-0.877
			c-1.221,0-1.943,0.63-2.053,1.84l-0.014,0.268h0.01c0.088,1.188,0.814,1.839,2.057,1.839h1.047v27.176h-1.047
			c-1.221,0-1.943,0.631-2.053,1.841l-0.014,0.269h0.01c0.088,1.187,0.814,1.838,2.057,1.838l0.889-0.001
			c1.004-0.077,1.635-0.225,2.17-0.539c0.582,0.353,1.256,0.471,2.203,0.54h5.744c1.33,0,2.064-0.748,2.064-2.105v-9.303
			c0-1.32-0.695-2.066-1.979-2.104l-0.086-0.001v0.001c-1.277,0.03-1.979,0.777-1.979,2.104v7.462h-3.935v-11.48h3.502
			c1.295,0,2.026-0.71,2.063-2.02l0.001-0.091c-0.031-1.301-0.764-2.018-2.064-2.018h-3.502V35.019h3.935v7.417
			C156.305,43.758,157,44.504,158.285,44.541z M37.017,82.374h1.866v-8.477h-1.866V82.374z M40.397,75.579h2.302v6.795h1.866v-6.795
			h2.302v-1.682h-6.47V75.579z M50.284,73.898l-3.271,8.477h1.962l0.631-1.729h2.823l0.63,1.729h1.963l-3.271-8.477H50.284z
			 M50.188,79.062l0.314-0.999l0.485-1.655h0.049l0.496,1.682l0.315,0.974L50.188,79.062L50.188,79.062z M58.354,73.898h-1.866
			v8.477h5.961v-1.682h-4.096L58.354,73.898L58.354,73.898z M64.218,82.374h1.865v-8.477h-1.865V82.374z M70.748,73.898
			l-3.271,8.477h1.963l0.631-1.729h2.823l0.629,1.729h1.963l-3.271-8.477H70.748z M70.651,79.062l0.314-0.999l0.485-1.655h0.048
			l0.497,1.682l0.315,0.974L70.651,79.062L70.651,79.062z M82.027,79.025l-0.023,0.013l-1.624-2.545l-1.769-2.595h-1.66v8.477h1.865
			v-5.127l0.024-0.014l1.248,2.022l2.145,3.117h1.66v-8.477h-1.866V79.025z M91.484,74.775c-0.287-0.293-0.635-0.521-1.042-0.688
			c-0.407-0.166-0.866-0.25-1.376-0.25c-0.549,0-1.027,0.091-1.436,0.269c-0.408,0.18-0.746,0.42-1.019,0.726
			c-0.271,0.305-0.473,0.653-0.604,1.053c-0.135,0.398-0.2,0.816-0.2,1.254v1.998c0,0.438,0.065,0.858,0.2,1.26
			c0.133,0.402,0.334,0.756,0.604,1.061s0.609,0.546,1.019,0.726c0.408,0.178,0.887,0.269,1.436,0.269
			c0.502,0,0.955-0.077,1.363-0.232c0.408-0.153,0.756-0.375,1.043-0.662c0.285-0.289,0.508-0.639,0.666-1.048
			c0.156-0.41,0.236-0.867,0.236-1.37V77.14c0-0.471-0.078-0.908-0.23-1.313C91.992,75.42,91.771,75.067,91.484,74.775z
			 M90.473,79.27c0,0.405-0.124,0.744-0.372,1.017c-0.247,0.271-0.598,0.407-1.053,0.407c-0.235,0-0.438-0.04-0.608-0.12
			c-0.17-0.082-0.312-0.188-0.426-0.317c-0.113-0.13-0.197-0.28-0.257-0.45c-0.057-0.171-0.084-0.35-0.084-0.535v-2.302
			c0-0.171,0.027-0.34,0.084-0.506c0.06-0.167,0.144-0.315,0.257-0.445c0.114-0.129,0.256-0.231,0.426-0.311
			c0.171-0.076,0.373-0.115,0.608-0.115c0.455,0,0.806,0.136,1.053,0.408c0.248,0.271,0.372,0.595,0.372,0.969V79.27z
			 M101.789,77.369l-0.594,2.117h-0.063l-0.629-2.154l-1.078-3.435h-1.963l2.92,8.477h1.515l2.907-8.477h-1.949L101.789,77.369z
			 M106.283,82.374h5.961v-1.682h-4.095v-1.777h3.489v-1.619h-3.489v-1.717h4.095v-1.682h-5.961V82.374z M120.041,77.825
			c0.263-0.409,0.394-0.87,0.394-1.383c0-0.404-0.072-0.768-0.218-1.084c-0.146-0.315-0.344-0.582-0.594-0.797
			c-0.25-0.216-0.539-0.38-0.867-0.493c-0.325-0.113-0.676-0.171-1.047-0.171h-3.731v8.477h1.864v-3.276h1.213l1.333,3.276h2.108
			l-1.613-3.604C119.393,78.551,119.778,78.235,120.041,77.825z M118.193,77.175c-0.201,0.162-0.473,0.243-0.813,0.243h-1.539
			v-1.853h1.6c0.314,0,0.57,0.068,0.764,0.208c0.193,0.139,0.291,0.364,0.291,0.682C118.496,76.772,118.395,77.012,118.193,77.175z
			 M127.807,74.775c-0.287-0.293-0.636-0.521-1.042-0.688c-0.408-0.166-0.866-0.25-1.376-0.25c-0.55,0-1.027,0.091-1.437,0.269
			c-0.408,0.18-0.746,0.42-1.018,0.726c-0.271,0.305-0.473,0.653-0.605,1.053c-0.131,0.399-0.199,0.816-0.199,1.254v1.998
			c0,0.438,0.066,0.858,0.199,1.26c0.133,0.402,0.336,0.756,0.605,1.061c0.271,0.305,0.609,0.546,1.018,0.726
			c0.408,0.178,0.887,0.269,1.437,0.269c0.502,0,0.954-0.077,1.362-0.232c0.408-0.153,0.756-0.375,1.043-0.662
			c0.287-0.289,0.509-0.639,0.666-1.048c0.158-0.41,0.236-0.867,0.236-1.37V77.14c0-0.471-0.076-0.908-0.23-1.313
			C128.314,75.42,128.093,75.067,127.807,74.775z M126.794,79.27c0,0.405-0.123,0.744-0.371,1.017
			c-0.246,0.271-0.598,0.407-1.053,0.407c-0.234,0-0.438-0.04-0.608-0.12c-0.171-0.082-0.312-0.188-0.427-0.317
			c-0.112-0.13-0.196-0.28-0.254-0.45c-0.058-0.171-0.086-0.35-0.086-0.535v-2.302c0-0.171,0.028-0.34,0.086-0.506
			c0.058-0.167,0.142-0.315,0.254-0.445c0.115-0.129,0.256-0.231,0.427-0.311c0.171-0.076,0.374-0.115,0.608-0.115
			c0.455,0,0.807,0.136,1.053,0.408c0.248,0.271,0.371,0.595,0.371,0.969V79.27z M62.911,13.443
			c2.085,2.845,5.494,6.957,9.688,6.957c0.725,0,1.473-0.123,2.241-0.396c-0.837-4.987-5.273-6.347-9.398-8.021
			c3.281-2.159,5.274-5.616,5.783-10.57c-1.006-0.557-1.932-0.806-2.78-0.806c-4.396,0-6.646,6.709-6.618,12.104
			c-1.049,0.4-2.445,0.451-2.531,1.823c0.173,0.024,0.333,0.037,0.481,0.037C61.194,14.573,61.576,13.527,62.911,13.443z
			 M73.033,18.91c-0.373,0.063-0.743,0.095-1.108,0.095c-3.249,0-6.143-2.423-7.206-5.198c0.064,0,0.127-0.001,0.191-0.001
			C69.304,13.806,71.736,15.785,73.033,18.91z M68.603,2.478c0.149,0,0.301,0.01,0.454,0.03c0.281,3.598-1.854,7.823-5.422,8.747
			C62.713,7.313,65.254,2.478,68.603,2.478z M80.986,10.162c1.624-2.736,5.221-3.483,5.061-8.02
			c-0.526-0.105-1.016-0.156-1.471-0.156c-5.545,0.001-6.155,7.311-11.183,8.539c0.077-0.002,0.152-0.003,0.227-0.003
			c2.746,0,4.334,1.526,5.848,3.054c1.515,1.525,2.956,3.052,5.407,3.052c0.572,0,1.199-0.083,1.896-0.27
			C86.63,12.49,83.152,11.986,80.986,10.162z M84.602,3.235c-0.742,3.508-3.179,5.302-6.508,6.197
			C79.588,6.687,80.971,3.828,84.602,3.235z M83.994,15.041c-2.299,0-4.213-2.342-5.177-4.15c2.701,0.678,4.25,2.519,6.146,4.01
			C84.632,14.997,84.309,15.041,83.994,15.041z M93.639,10.162c2.897-1.237,5.702-4.416,4.698-8.385
			c-4.342,0.726-6.403,3.749-7.951,7.291c-0.608,0.847-3.239-0.351-2.895,1.457c0.213-0.016,0.42-0.022,0.617-0.022
			c6.188,0,4.881,7.562,10.951,7.679C100.291,13.865,95.634,12.43,93.639,10.162z M91.832,9.433
			c0.189-3.332,2.984-4.036,4.699-5.832C97.335,6.483,94.567,8.908,91.832,9.433z M93.277,11.619c1.791,1.11,3.494,2.31,4.338,4.375
			C95.5,15.392,92.938,13.505,93.277,11.619z M49.952,19.439c0.507-0.295,1.013-0.59,1.812-0.59c0.201,0,0.42,0.02,0.663,0.062
			c-0.171,1.146,0.515,1.425,0.724,2.188c3.254,0.88,5.823,4.892,9.36,4.892c0.694,0,1.426-0.155,2.208-0.52
			c-1.526-4.779-5.692-6.896-10.122-8.747c1.536-3.017,3.437-7.374,2.168-12.03c-0.229-0.031-0.45-0.047-0.663-0.047
			c-4.715,0.001-5.565,7.532-4.761,12.807c-1.076,0.979-3.714,0.385-3.614,2.552c0.146,0.017,0.282,0.023,0.411,0.023
			C48.938,20.028,49.445,19.733,49.952,19.439z M54.855,18.664c3.226,0,7.529,3.526,7.694,6.079
			c-3.662-1.29-6.482-3.428-9.039-5.832C53.924,18.741,54.378,18.664,54.855,18.664z M54.958,5.787
			c2.353,2.634-0.213,8.746-2.169,10.57C50.872,12.776,53.256,8.061,54.958,5.787z M69.779,10.525
			c-0.191,0.736,0.363,1.102,0.907,1.102c0.447,0,0.887-0.246,0.901-0.735c-0.332-0.242-0.744-0.401-1.313-0.401
			C70.121,10.49,69.957,10.501,69.779,10.525z M115.105,18.936c0.314,0,0.629-0.008,0.945-0.024
			c-2.096-4.41-6.813-7.453-12.768-7.453c-0.785,0-1.592,0.053-2.416,0.162C103.619,15.786,109.085,18.936,115.105,18.936z
			 M104.333,12.712c4.629,0,7.111,2.167,9.188,4.74c-4.221-0.483-7.951-1.461-9.4-4.739
			C104.192,12.712,104.264,12.712,104.333,12.712z M44.474,22.191c0.062,0.009,0.122,0.013,0.181,0.013
			c1.336,0,1.628-2.024,0.903-2.93c-0.125-0.02-0.24-0.027-0.346-0.027c-0.857,0-1.15,0.57-1.823,0.757
			C43.196,21.293,43.976,21.601,44.474,22.191z M119.089,22.929c0.267,0,0.437-0.094,0.607-0.188
			c0.172-0.095,0.342-0.188,0.607-0.188c0.027,0,0.056,0.001,0.085,0.003c0.114-0.846-0.06-1.399-0.362-1.823h-1.084
			c-0.494,0.468-0.494,1.723,0,2.188C118.994,22.926,119.044,22.929,119.089,22.929z M123.152,26.598
			c0.438,0,0.879-0.218,1.215-0.762c-0.02-1.439-0.744-2.168-2.17-2.188C120.541,24.631,121.835,26.598,123.152,26.598z
			 M84.857,23.017l0.014-0.019l-0.016,0.019H84.857z M78.839,15.935c-0.516,0-1.035,0.164-1.537,0.534
			c-3.537,2.604,1.422,9.063,4.729,9.063c0.387,0,0.75-0.089,1.075-0.28C85.817,23.643,82.382,15.935,78.839,15.935z M82.44,24.621
			c-0.832,0-1.774-0.657-2.632-1.58c-2.222-1.632-3.504-3.894-2.7-5.123c-0.002,1.166,1.225,3.537,2.7,5.123
			c0.875,0.643,1.896,1.188,2.992,1.536C82.684,24.606,82.563,24.621,82.44,24.621z M90.75,14.216c-0.41,0-0.821,0.13-1.221,0.423
			c-2.808,2.066,1.129,7.192,3.754,7.192c0.307,0,0.596-0.069,0.854-0.224C96.289,20.333,93.563,14.216,90.75,14.216z
			 M93.607,21.108c-0.662,0-1.408-0.521-2.09-1.253c-1.764-1.295-2.779-3.088-2.143-4.063c-0.002,0.925,0.972,2.806,2.143,4.063
			c0.693,0.511,1.504,0.943,2.375,1.22C93.8,21.098,93.705,21.108,93.607,21.108z"/>
	</g>
</g>
</svg>
